<?xml version="1.0" encoding="utf-8"?>
<!-- Generator: Adobe Illustrator 22.1.0, SVG Export Plug-In . SVG Version: 6.00 Build 0)  -->
<svg version="1.1" id="Layer_1" xmlns="http://www.w3.org/2000/svg" xmlns:xlink="http://www.w3.org/1999/xlink" x="0px" y="0px"
	 viewBox="0 0 245.4 187.7" style="enable-background:new 0 0 245.4 187.7;" xml:space="preserve">
<style type="text/css">
	.st0{fill:#222222;}
	.st1{fill:#F92300;}
</style>
<g>
	<path class="st0" d="M0,105.6V82.1c5.8-0.3,10.1-1.4,12.8-3.4c2.8-2,4.9-5.2,6.3-9.5s2.2-11.6,2.2-21.8c0-12.9,0.6-21.7,1.8-26.4
		c1.2-4.7,3.1-8.5,5.6-11.3s6.4-5.2,11.4-7C45.1,0.9,52.3,0,61.7,0h5.2v23.4c-7,0-11.5,0.4-13.7,1.1c-2.1,0.7-3.7,2-4.7,3.7
		c-1,1.7-1.5,4.8-1.5,9.4c0,8.2-0.4,17.4-1.2,27.4c-0.5,6.6-2.3,12.5-5.4,17.7c-2.3,3.8-6.2,7.6-11.9,11.2
		c4.7,2.7,8.5,6.2,11.3,10.4c2.8,4.2,4.6,9.5,5.6,15.9c0.4,2.8,0.8,11.9,1.4,27.3c0.2,5.7,0.6,9.2,1.1,10.5c0.9,2,2.4,3.5,4.8,4.6
		c2.3,1,7.1,1.6,14.3,1.6v23.4h-5.2c-9.5,0-16.5-0.8-21-2.3c-4.6-1.5-8.3-3.8-11.2-6.7c-2.9-3-4.9-6.7-6.2-11.2
		c-1.3-4.5-1.9-12.3-1.9-23.4c0-12.4-0.7-20.7-2-25c-1.3-4.3-3.4-7.6-6.2-9.7S5.9,105.9,0,105.6z"/>
	<path class="st0" d="M245.4,82.1v23.4c-5.8,0.3-10.1,1.5-12.8,3.5c-2.8,2-4.9,5.1-6.4,9.5c-1.5,4.3-2.2,11.6-2.2,21.8
		c0,12.9-0.6,21.7-1.7,26.4c-1.1,4.7-3,8.4-5.6,11.3c-2.6,2.8-6.3,5.2-11.3,7c-5,1.8-12.2,2.7-21.5,2.7h-5.2v-23.4
		c7,0,11.5-0.4,13.6-1.1c2.1-0.7,3.7-2,4.7-3.7c1-1.7,1.6-4.8,1.6-9.4c0-8.3,0.4-17.4,1.2-27.5c0.5-6.6,2.2-12.4,5.3-17.6
		c2.3-3.9,6.3-7.6,11.9-11.2c-4.8-2.7-8.5-6.2-11.3-10.4c-2.8-4.2-4.7-9.6-5.6-16.1c-0.4-2.7-0.8-11.8-1.4-27.2
		c-0.2-5.7-0.6-9.2-1.2-10.5c-0.8-2.1-2.4-3.6-4.7-4.6c-2.3-1-7-1.5-14.1-1.5V0h5.2c9.4,0,16.4,0.8,20.9,2.3
		c4.5,1.6,8.2,3.8,11.1,6.8c2.9,3,5,6.7,6.2,11.2c1.3,4.5,1.9,12.3,1.9,23.4c0,12.4,0.7,20.7,2,25c1.3,4.3,3.4,7.5,6.2,9.7
		C235,80.6,239.4,81.8,245.4,82.1z"/>
</g>
<g>
	<path class="st1" d="M106.2,71.1H85.8c-0.1-10,3.3-18.3,10.3-24.9c7-6.5,16.2-9.8,27.6-9.8c7.3,0,13.6,1.4,18.8,4.1
		c5.2,2.7,9.3,6.6,12.4,11.7c3.1,5.1,4.6,10.5,4.6,16.1c0,3.1-0.5,6.1-1.5,9.1c-1,3-2.6,6-4.7,9.1c-1.2,1.8-4.2,4.9-9,9.2
		c-4.5,4.1-7.4,7-8.5,8.7c-1.1,1.7-2.1,3.9-2.9,6.8s-1.3,6.7-1.5,11.7h-21.2l-0.1-3.5c0-7,1.3-13.3,3.8-19
		c2.6-5.7,6.7-11.1,12.4-16.1c5.5-4.8,8.9-8.2,10-10c1.1-1.8,1.7-4,1.7-6.4c0-3.3-1.4-6.2-4.2-8.5c-2.8-2.3-6.5-3.5-11.2-3.5
		c-4.8,0-8.7,1.4-11.8,4.2C107.8,63,106.3,66.7,106.2,71.1z M121.1,131.8c3.8,0,7,1.3,9.7,3.9c2.7,2.6,4,5.8,4,9.5
		c0,3.7-1.3,6.9-4,9.5s-5.9,3.9-9.6,3.9s-6.9-1.3-9.6-3.9c-2.6-2.6-3.9-5.8-3.9-9.5c0-3.7,1.3-6.8,3.9-9.5
		C114.3,133.1,117.4,131.8,121.1,131.8z"/>
</g>
</svg>
